<svg width="160" height="68" viewBox="0 0 160 68" fill="none" xmlns="http://www.w3.org/2000/svg">
<g filter="url(#filter0_dd_1_23)">
<rect width="134.97" height="44" transform="translate(12.3901 2)" fill="url(#paint0_linear_1_23)"/>
<path d="M43.3901 13.3438C37.5048 13.3438 32.7339 18.1147 32.7339 24C32.7339 29.8853 37.5048 34.6562 43.3901 34.6562C49.2754 34.6562 54.0464 29.8853 54.0464 24C54.0464 18.1147 49.2754 13.3438 43.3901 13.3438ZM48.3295 20.5909C48.1691 22.2759 47.4752 26.3649 47.1221 28.2522C46.9727 29.0507 46.6785 29.3185 46.3938 29.3447C45.7751 29.4016 45.3051 28.9357 44.7057 28.5428C43.7678 27.928 43.238 27.5453 42.3276 26.9454C41.2755 26.2521 41.9575 25.8712 42.5571 25.2481C42.714 25.0851 45.4406 22.6051 45.4934 22.3801C45.4999 22.352 45.5063 22.2469 45.4438 22.1917C45.3813 22.1366 45.2895 22.1553 45.2231 22.1703C45.1291 22.1916 43.6308 23.1819 40.7283 25.1412C40.303 25.4332 39.9178 25.5755 39.5727 25.5681C39.1922 25.5599 38.4603 25.353 37.9162 25.1761C37.2488 24.9591 36.7184 24.8445 36.7646 24.4761C36.7887 24.2841 37.0529 24.0879 37.5574 23.8874C40.6639 22.5339 42.7354 21.6416 43.7719 21.2104C46.7312 19.9795 47.3461 19.7657 47.747 19.7586C47.8351 19.7571 48.0322 19.7789 48.1599 19.8825C48.2448 19.9563 48.2989 20.0593 48.3116 20.1711C48.3332 20.3099 48.3392 20.4507 48.3295 20.5909Z" fill="white"/>
<path d="M68.1741 18.912V20.256H64.6861V30H63.1341V20.256H59.6461V18.912H68.1741ZM68.378 25.856C68.378 25.12 68.4847 24.48 68.698 23.936C68.9113 23.3813 69.194 22.9227 69.546 22.56C69.898 22.1973 70.3033 21.9253 70.762 21.744C71.2207 21.5627 71.69 21.472 72.17 21.472C73.29 21.472 74.1487 21.824 74.746 22.528C75.3433 23.2213 75.642 24.2827 75.642 25.712C75.642 25.776 75.642 25.8613 75.642 25.968C75.642 26.064 75.6367 26.1547 75.626 26.24H69.93C69.994 27.104 70.2447 27.76 70.682 28.208C71.1193 28.656 71.802 28.88 72.73 28.88C73.2527 28.88 73.69 28.8373 74.042 28.752C74.4047 28.656 74.6767 28.5653 74.858 28.48L75.066 29.728C74.8847 29.824 74.5647 29.9253 74.106 30.032C73.658 30.1387 73.146 30.192 72.57 30.192C71.8447 30.192 71.2153 30.0853 70.682 29.872C70.1593 29.648 69.7273 29.344 69.386 28.96C69.0447 28.576 68.7887 28.1227 68.618 27.6C68.458 27.0667 68.378 26.4853 68.378 25.856ZM74.09 25.04C74.1007 24.368 73.93 23.8187 73.578 23.392C73.2367 22.9547 72.762 22.736 72.154 22.736C71.8127 22.736 71.5087 22.8053 71.242 22.944C70.986 23.072 70.7673 23.2427 70.586 23.456C70.4047 23.6693 70.2607 23.9147 70.154 24.192C70.058 24.4693 69.994 24.752 69.962 25.04H74.09ZM80.2755 30.16C79.3582 30.1387 78.7075 29.9413 78.3235 29.568C77.9395 29.1947 77.7475 28.6133 77.7475 27.824V17.84L79.2355 17.584V27.584C79.2355 27.8293 79.2568 28.032 79.2995 28.192C79.3422 28.352 79.4115 28.48 79.5075 28.576C79.6035 28.672 79.7315 28.7467 79.8915 28.8C80.0515 28.8427 80.2488 28.88 80.4835 28.912L80.2755 30.16ZM81.6905 25.856C81.6905 25.12 81.7972 24.48 82.0105 23.936C82.2238 23.3813 82.5065 22.9227 82.8585 22.56C83.2105 22.1973 83.6158 21.9253 84.0745 21.744C84.5332 21.5627 85.0025 21.472 85.4825 21.472C86.6025 21.472 87.4612 21.824 88.0585 22.528C88.6558 23.2213 88.9545 24.2827 88.9545 25.712C88.9545 25.776 88.9545 25.8613 88.9545 25.968C88.9545 26.064 88.9492 26.1547 88.9385 26.24H83.2425C83.3065 27.104 83.5572 27.76 83.9945 28.208C84.4318 28.656 85.1145 28.88 86.0425 28.88C86.5652 28.88 87.0025 28.8373 87.3545 28.752C87.7172 28.656 87.9892 28.5653 88.1705 28.48L88.3785 29.728C88.1972 29.824 87.8772 29.9253 87.4185 30.032C86.9705 30.1387 86.4585 30.192 85.8825 30.192C85.1572 30.192 84.5278 30.0853 83.9945 29.872C83.4718 29.648 83.0398 29.344 82.6985 28.96C82.3572 28.576 82.1012 28.1227 81.9305 27.6C81.7705 27.0667 81.6905 26.4853 81.6905 25.856ZM87.4025 25.04C87.4132 24.368 87.2425 23.8187 86.8905 23.392C86.5492 22.9547 86.0745 22.736 85.4665 22.736C85.1252 22.736 84.8212 22.8053 84.5545 22.944C84.2985 23.072 84.0798 23.2427 83.8985 23.456C83.7172 23.6693 83.5732 23.9147 83.4665 24.192C83.3705 24.4693 83.3065 24.752 83.2745 25.04H87.4025ZM96.308 29.168C96.18 29.2533 95.9293 29.3653 95.556 29.504C95.1933 29.632 94.7667 29.696 94.276 29.696C93.7747 29.696 93.3 29.616 92.852 29.456C92.4147 29.296 92.0307 29.0507 91.7 28.72C91.3693 28.3787 91.108 27.9573 90.916 27.456C90.724 26.9547 90.628 26.3573 90.628 25.664C90.628 25.056 90.7187 24.5013 90.9 24C91.0813 23.488 91.3427 23.0507 91.684 22.688C92.036 22.3147 92.4627 22.0267 92.964 21.824C93.4653 21.6107 94.0307 21.504 94.66 21.504C95.3533 21.504 95.956 21.5573 96.468 21.664C96.9907 21.76 97.428 21.8507 97.78 21.936V29.36C97.78 30.64 97.4493 31.568 96.788 32.144C96.1267 32.72 95.124 33.008 93.78 33.008C93.2573 33.008 92.7613 32.9653 92.292 32.88C91.8333 32.7947 91.4333 32.6933 91.092 32.576L91.364 31.28C91.6627 31.3973 92.0253 31.4987 92.452 31.584C92.8893 31.68 93.3427 31.728 93.812 31.728C94.6973 31.728 95.332 31.552 95.716 31.2C96.1107 30.848 96.308 30.288 96.308 29.52V29.168ZM96.292 22.992C96.1427 22.9493 95.94 22.912 95.684 22.88C95.4387 22.8373 95.1027 22.816 94.676 22.816C93.876 22.816 93.2573 23.0773 92.82 23.6C92.3933 24.1227 92.18 24.816 92.18 25.68C92.18 26.16 92.2387 26.5707 92.356 26.912C92.484 27.2533 92.6493 27.536 92.852 27.76C93.0653 27.984 93.3053 28.1493 93.572 28.256C93.8493 28.3627 94.132 28.416 94.42 28.416C94.8147 28.416 95.1773 28.3627 95.508 28.256C95.8387 28.1387 96.1 28.0053 96.292 27.856V22.992ZM103.414 21.504C103.542 21.504 103.686 21.5147 103.846 21.536C104.017 21.5467 104.182 21.568 104.342 21.6C104.502 21.6213 104.646 21.648 104.774 21.68C104.913 21.7013 105.014 21.7227 105.078 21.744L104.822 23.04C104.705 22.9973 104.507 22.9493 104.23 22.896C103.963 22.832 103.617 22.8 103.19 22.8C102.913 22.8 102.635 22.832 102.358 22.896C102.091 22.9493 101.915 22.9867 101.83 23.008V30H100.342V22.032C100.694 21.904 101.131 21.7867 101.654 21.68C102.177 21.5627 102.763 21.504 103.414 21.504ZM109.33 28.928C109.682 28.928 109.991 28.9227 110.258 28.912C110.535 28.8907 110.765 28.8587 110.946 28.816V26.336C110.839 26.2827 110.663 26.24 110.418 26.208C110.183 26.1653 109.895 26.144 109.554 26.144C109.33 26.144 109.09 26.16 108.834 26.192C108.589 26.224 108.359 26.2933 108.146 26.4C107.943 26.496 107.773 26.6347 107.634 26.816C107.495 26.9867 107.426 27.216 107.426 27.504C107.426 28.0373 107.597 28.4107 107.938 28.624C108.279 28.8267 108.743 28.928 109.33 28.928ZM109.202 21.472C109.799 21.472 110.301 21.552 110.706 21.712C111.122 21.8613 111.453 22.08 111.698 22.368C111.954 22.6453 112.135 22.9813 112.242 23.376C112.349 23.76 112.402 24.1867 112.402 24.656V29.856C112.274 29.8773 112.093 29.9093 111.858 29.952C111.634 29.984 111.378 30.016 111.09 30.048C110.802 30.08 110.487 30.1067 110.146 30.128C109.815 30.16 109.485 30.176 109.154 30.176C108.685 30.176 108.253 30.128 107.858 30.032C107.463 29.936 107.122 29.7867 106.834 29.584C106.546 29.3707 106.322 29.0933 106.162 28.752C106.002 28.4107 105.922 28 105.922 27.52C105.922 27.0613 106.013 26.6667 106.194 26.336C106.386 26.0053 106.642 25.7387 106.962 25.536C107.282 25.3333 107.655 25.184 108.082 25.088C108.509 24.992 108.957 24.944 109.426 24.944C109.575 24.944 109.73 24.9547 109.89 24.976C110.05 24.9867 110.199 25.008 110.338 25.04C110.487 25.0613 110.615 25.0827 110.722 25.104C110.829 25.1253 110.903 25.1413 110.946 25.152V24.736C110.946 24.4907 110.919 24.2507 110.866 24.016C110.813 23.7707 110.717 23.5573 110.578 23.376C110.439 23.184 110.247 23.0347 110.002 22.928C109.767 22.8107 109.458 22.752 109.074 22.752C108.583 22.752 108.151 22.7893 107.778 22.864C107.415 22.928 107.143 22.9973 106.962 23.072L106.786 21.84C106.978 21.7547 107.298 21.6747 107.746 21.6C108.194 21.5147 108.679 21.472 109.202 21.472ZM114.873 21.92C115.215 21.8347 115.663 21.744 116.217 21.648C116.783 21.552 117.433 21.504 118.169 21.504C118.703 21.504 119.151 21.5787 119.513 21.728C119.876 21.8667 120.18 22.0747 120.425 22.352C120.5 22.2987 120.617 22.224 120.777 22.128C120.937 22.032 121.135 21.9413 121.369 21.856C121.604 21.76 121.865 21.68 122.153 21.616C122.441 21.5413 122.751 21.504 123.081 21.504C123.721 21.504 124.244 21.6 124.649 21.792C125.055 21.9733 125.369 22.2347 125.593 22.576C125.828 22.9173 125.983 23.3227 126.057 23.792C126.143 24.2613 126.185 24.7733 126.185 25.328V30H124.697V25.648C124.697 25.1573 124.671 24.736 124.617 24.384C124.575 24.032 124.484 23.7387 124.345 23.504C124.217 23.2693 124.036 23.0987 123.801 22.992C123.577 22.8747 123.284 22.816 122.921 22.816C122.42 22.816 122.004 22.8853 121.673 23.024C121.353 23.152 121.135 23.2693 121.017 23.376C121.103 23.6533 121.167 23.9573 121.209 24.288C121.252 24.6187 121.273 24.9653 121.273 25.328V30H119.785V25.648C119.785 25.1573 119.759 24.736 119.705 24.384C119.652 24.032 119.556 23.7387 119.417 23.504C119.289 23.2693 119.108 23.0987 118.873 22.992C118.649 22.8747 118.361 22.816 118.009 22.816C117.86 22.816 117.7 22.8213 117.529 22.832C117.359 22.8427 117.193 22.8587 117.033 22.88C116.884 22.8907 116.745 22.9067 116.617 22.928C116.489 22.9493 116.404 22.9653 116.361 22.976V30H114.873V21.92Z" fill="white"/>
</g>
<defs>
<filter id="filter0_dd_1_23" x="0.390137" y="0" width="158.97" height="68" filterUnits="userSpaceOnUse" color-interpolation-filters="sRGB">
<feFlood flood-opacity="0" result="BackgroundImageFix"/>
<feColorMatrix in="SourceAlpha" type="matrix" values="0 0 0 0 0 0 0 0 0 0 0 0 0 0 0 0 0 0 127 0" result="hardAlpha"/>
<feMorphology radius="4" operator="erode" in="SourceAlpha" result="effect1_dropShadow_1_23"/>
<feOffset dy="4"/>
<feGaussianBlur stdDeviation="3"/>
<feComposite in2="hardAlpha" operator="out"/>
<feColorMatrix type="matrix" values="0 0 0 0 0 0 0 0 0 0 0 0 0 0 0 0 0 0 0.1 0"/>
<feBlend mode="normal" in2="BackgroundImageFix" result="effect1_dropShadow_1_23"/>
<feColorMatrix in="SourceAlpha" type="matrix" values="0 0 0 0 0 0 0 0 0 0 0 0 0 0 0 0 0 0 127 0" result="hardAlpha"/>
<feMorphology radius="3" operator="erode" in="SourceAlpha" result="effect2_dropShadow_1_23"/>
<feOffset dy="10"/>
<feGaussianBlur stdDeviation="7.5"/>
<feComposite in2="hardAlpha" operator="out"/>
<feColorMatrix type="matrix" values="0 0 0 0 0 0 0 0 0 0 0 0 0 0 0 0 0 0 0.1 0"/>
<feBlend mode="normal" in2="effect1_dropShadow_1_23" result="effect2_dropShadow_1_23"/>
<feBlend mode="normal" in="SourceGraphic" in2="effect2_dropShadow_1_23" result="shape"/>
</filter>
<linearGradient id="paint0_linear_1_23" x1="0" y1="22" x2="134.97" y2="22" gradientUnits="userSpaceOnUse">
<stop stop-color="#0088CC"/>
<stop offset="1" stop-color="#00AAFF"/>
</linearGradient>
</defs>
</svg>
