<svg width="167" height="68" viewBox="0 0 167 68" fill="none" xmlns="http://www.w3.org/2000/svg">
<g filter="url(#filter0_dd_1_19)">
<rect width="142.39" height="44" transform="translate(12 2)" fill="url(#paint0_linear_1_19)"/>
<path d="M49.7418 17.1723C47.9414 15.3676 45.5437 14.375 42.9957 14.375C37.7363 14.375 33.4566 18.6547 33.4566 23.9141C33.4566 25.5941 33.8949 27.2355 34.7285 28.6836L33.375 33.625L38.4324 32.2973C39.8246 33.0578 41.393 33.4574 42.9914 33.4574H42.9957C48.2508 33.4574 52.625 29.1777 52.625 23.9184C52.625 21.3703 51.5422 18.977 49.7418 17.1723ZM42.9957 31.8504C41.5691 31.8504 40.1727 31.468 38.9566 30.7461L38.6687 30.5742L35.6695 31.3605L36.4688 28.4344L36.2797 28.1336C35.4848 26.8703 35.068 25.4137 35.068 23.9141C35.068 19.5441 38.6258 15.9863 43 15.9863C45.1184 15.9863 47.1078 16.8113 48.6031 18.3109C50.0984 19.8105 51.018 21.8 51.0137 23.9184C51.0137 28.2926 47.3656 31.8504 42.9957 31.8504ZM47.3441 25.9121C47.1078 25.7918 45.9348 25.216 45.7156 25.1387C45.4965 25.057 45.3375 25.0184 45.1785 25.259C45.0195 25.4996 44.5641 26.0324 44.4223 26.1957C44.2848 26.3547 44.143 26.3762 43.9066 26.2559C42.5059 25.5555 41.5863 25.0055 40.6625 23.4199C40.4176 22.9988 40.9074 23.0289 41.3629 22.118C41.4402 21.959 41.4016 21.8215 41.3414 21.7012C41.2812 21.5809 40.8043 20.4078 40.6066 19.9309C40.4133 19.4668 40.2156 19.5312 40.0695 19.5227C39.932 19.5141 39.773 19.5141 39.6141 19.5141C39.4551 19.5141 39.1973 19.5742 38.9781 19.8105C38.759 20.0512 38.1445 20.627 38.1445 21.8C38.1445 22.973 38.9996 24.1074 39.1156 24.2664C39.2359 24.4254 40.7957 26.8316 43.1891 27.8672C44.7016 28.5203 45.2945 28.5762 46.0508 28.4645C46.5105 28.3957 47.4602 27.8887 47.6578 27.3301C47.8555 26.7715 47.8555 26.2945 47.7953 26.1957C47.7395 26.0883 47.5805 26.0281 47.3441 25.9121Z" fill="white"/>
<path d="M66.44 22.48C65.992 23.9093 65.5387 25.232 65.08 26.448C64.6213 27.664 64.1627 28.848 63.704 30H62.152C61.5867 28.368 61.0853 26.6453 60.648 24.832C60.2213 23.0187 59.8213 21.0453 59.448 18.912H61.08C61.2293 19.744 61.384 20.576 61.544 21.408C61.704 22.24 61.8693 23.0507 62.04 23.84C62.2107 24.6187 62.3813 25.3653 62.552 26.08C62.7227 26.7947 62.8987 27.456 63.08 28.064C63.5067 26.944 63.96 25.7173 64.44 24.384C64.92 23.04 65.368 21.6533 65.784 20.224H67.128C67.544 21.6533 67.9973 23.04 68.488 24.384C68.9787 25.7173 69.4373 26.944 69.864 28.064C70.0347 27.4667 70.2053 26.8107 70.376 26.096C70.5467 25.3813 70.712 24.6347 70.872 23.856C71.0427 23.0667 71.208 22.256 71.368 21.424C71.528 20.5813 71.6827 19.744 71.832 18.912H73.416C73.032 21.0453 72.6213 23.0187 72.184 24.832C71.7573 26.6453 71.2667 28.368 70.712 30H69.16C68.6907 28.848 68.232 27.664 67.784 26.448C67.336 25.232 66.888 23.9093 66.44 22.48ZM75.1394 30V17.84L76.6274 17.584V21.84C76.9047 21.7333 77.198 21.6533 77.5074 21.6C77.8274 21.536 78.142 21.504 78.4514 21.504C79.1127 21.504 79.662 21.6 80.0994 21.792C80.5367 21.9733 80.8834 22.2347 81.1394 22.576C81.406 22.9067 81.5927 23.3067 81.6994 23.776C81.806 24.2453 81.8594 24.7627 81.8594 25.328V30H80.3714V25.648C80.3714 25.136 80.334 24.6987 80.2594 24.336C80.1954 23.9733 80.0834 23.68 79.9234 23.456C79.7634 23.232 79.55 23.072 79.2834 22.976C79.0167 22.8693 78.686 22.816 78.2914 22.816C78.1314 22.816 77.966 22.8267 77.7954 22.848C77.6247 22.8693 77.4594 22.896 77.2994 22.928C77.15 22.9493 77.0114 22.976 76.8834 23.008C76.766 23.04 76.6807 23.0667 76.6274 23.088V30H75.1394ZM87.096 28.928C87.448 28.928 87.7573 28.9227 88.024 28.912C88.3013 28.8907 88.5307 28.8587 88.712 28.816V26.336C88.6053 26.2827 88.4293 26.24 88.184 26.208C87.9493 26.1653 87.6613 26.144 87.32 26.144C87.096 26.144 86.856 26.16 86.6 26.192C86.3547 26.224 86.1253 26.2933 85.912 26.4C85.7093 26.496 85.5387 26.6347 85.4 26.816C85.2613 26.9867 85.192 27.216 85.192 27.504C85.192 28.0373 85.3627 28.4107 85.704 28.624C86.0453 28.8267 86.5093 28.928 87.096 28.928ZM86.968 21.472C87.5653 21.472 88.0667 21.552 88.472 21.712C88.888 21.8613 89.2187 22.08 89.464 22.368C89.72 22.6453 89.9013 22.9813 90.008 23.376C90.1147 23.76 90.168 24.1867 90.168 24.656V29.856C90.04 29.8773 89.8587 29.9093 89.624 29.952C89.4 29.984 89.144 30.016 88.856 30.048C88.568 30.08 88.2533 30.1067 87.912 30.128C87.5813 30.16 87.2507 30.176 86.92 30.176C86.4507 30.176 86.0187 30.128 85.624 30.032C85.2293 29.936 84.888 29.7867 84.6 29.584C84.312 29.3707 84.088 29.0933 83.928 28.752C83.768 28.4107 83.688 28 83.688 27.52C83.688 27.0613 83.7787 26.6667 83.96 26.336C84.152 26.0053 84.408 25.7387 84.728 25.536C85.048 25.3333 85.4213 25.184 85.848 25.088C86.2747 24.992 86.7227 24.944 87.192 24.944C87.3413 24.944 87.496 24.9547 87.656 24.976C87.816 24.9867 87.9653 25.008 88.104 25.04C88.2533 25.0613 88.3813 25.0827 88.488 25.104C88.5947 25.1253 88.6693 25.1413 88.712 25.152V24.736C88.712 24.4907 88.6853 24.2507 88.632 24.016C88.5787 23.7707 88.4827 23.5573 88.344 23.376C88.2053 23.184 88.0133 23.0347 87.768 22.928C87.5333 22.8107 87.224 22.752 86.84 22.752C86.3493 22.752 85.9173 22.7893 85.544 22.864C85.1813 22.928 84.9093 22.9973 84.728 23.072L84.552 21.84C84.744 21.7547 85.064 21.6747 85.512 21.6C85.96 21.5147 86.4453 21.472 86.968 21.472ZM94.0314 21.68H97.1834V22.928H94.0314V26.768C94.0314 27.184 94.0634 27.5307 94.1274 27.808C94.1914 28.0747 94.2874 28.288 94.4154 28.448C94.5434 28.5973 94.7034 28.704 94.8954 28.768C95.0874 28.832 95.3114 28.864 95.5674 28.864C96.0154 28.864 96.3727 28.816 96.6394 28.72C96.9167 28.6133 97.1087 28.5387 97.2154 28.496L97.5034 29.728C97.354 29.8027 97.0927 29.8933 96.7194 30C96.346 30.1173 95.9194 30.176 95.4394 30.176C94.874 30.176 94.4047 30.1067 94.0314 29.968C93.6687 29.8187 93.3754 29.6 93.1514 29.312C92.9274 29.024 92.7674 28.672 92.6714 28.256C92.586 27.8293 92.5434 27.3387 92.5434 26.784V19.36L94.0314 19.104V21.68ZM101.013 28.928C101.621 28.928 102.069 28.848 102.357 28.688C102.656 28.528 102.805 28.272 102.805 27.92C102.805 27.5573 102.661 27.2693 102.373 27.056C102.085 26.8427 101.61 26.6027 100.949 26.336C100.629 26.208 100.32 26.08 100.021 25.952C99.7329 25.8133 99.4822 25.6533 99.2689 25.472C99.0555 25.2907 98.8849 25.072 98.7569 24.816C98.6289 24.56 98.5649 24.2453 98.5649 23.872C98.5649 23.136 98.8369 22.5547 99.3809 22.128C99.9249 21.6907 100.666 21.472 101.605 21.472C101.84 21.472 102.074 21.488 102.309 21.52C102.544 21.5413 102.762 21.5733 102.965 21.616C103.168 21.648 103.344 21.6853 103.493 21.728C103.653 21.7707 103.776 21.808 103.861 21.84L103.589 23.12C103.429 23.0347 103.178 22.9493 102.837 22.864C102.496 22.768 102.085 22.72 101.605 22.72C101.189 22.72 100.826 22.8053 100.517 22.976C100.208 23.136 100.053 23.392 100.053 23.744C100.053 23.9253 100.085 24.0853 100.149 24.224C100.224 24.3627 100.33 24.4907 100.469 24.608C100.618 24.7147 100.8 24.816 101.013 24.912C101.226 25.008 101.482 25.1093 101.781 25.216C102.176 25.3653 102.528 25.5147 102.837 25.664C103.146 25.8027 103.408 25.968 103.621 26.16C103.845 26.352 104.016 26.5867 104.133 26.864C104.25 27.1307 104.309 27.4613 104.309 27.856C104.309 28.624 104.021 29.2053 103.445 29.6C102.88 29.9947 102.069 30.192 101.013 30.192C100.277 30.192 99.7009 30.128 99.2849 30C98.8689 29.8827 98.5862 29.792 98.4369 29.728L98.7089 28.448C98.8795 28.512 99.1515 28.608 99.5249 28.736C99.8982 28.864 100.394 28.928 101.013 28.928ZM113.722 30C113.54 29.52 113.37 29.0507 113.21 28.592C113.05 28.1227 112.884 27.648 112.714 27.168H107.69L106.682 30H105.066C105.492 28.8267 105.892 27.744 106.266 26.752C106.639 25.7493 107.002 24.8 107.354 23.904C107.716 23.008 108.074 22.1547 108.426 21.344C108.778 20.5227 109.146 19.712 109.53 18.912H110.954C111.338 19.712 111.706 20.5227 112.058 21.344C112.41 22.1547 112.762 23.008 113.114 23.904C113.476 24.8 113.844 25.7493 114.218 26.752C114.591 27.744 114.991 28.8267 115.418 30H113.722ZM112.266 25.888C111.924 24.96 111.583 24.064 111.242 23.2C110.911 22.3253 110.564 21.488 110.202 20.688C109.828 21.488 109.471 22.3253 109.13 23.2C108.799 24.064 108.468 24.96 108.138 25.888H112.266ZM122.603 25.856C122.603 24.8853 122.363 24.1387 121.883 23.616C121.403 23.0933 120.763 22.832 119.963 22.832C119.515 22.832 119.163 22.848 118.907 22.88C118.662 22.912 118.464 22.9493 118.315 22.992V28.24C118.496 28.3893 118.758 28.5333 119.099 28.672C119.44 28.8107 119.814 28.88 120.219 28.88C120.646 28.88 121.008 28.8053 121.307 28.656C121.616 28.496 121.867 28.2827 122.059 28.016C122.251 27.7387 122.39 27.4187 122.475 27.056C122.56 26.6827 122.603 26.2827 122.603 25.856ZM124.155 25.856C124.155 26.4853 124.07 27.0667 123.899 27.6C123.739 28.1333 123.499 28.592 123.179 28.976C122.859 29.36 122.464 29.6587 121.995 29.872C121.536 30.0853 121.008 30.192 120.411 30.192C119.931 30.192 119.504 30.128 119.131 30C118.768 29.872 118.496 29.7493 118.315 29.632V32.96H116.827V21.936C117.179 21.8507 117.616 21.76 118.139 21.664C118.672 21.5573 119.286 21.504 119.979 21.504C120.619 21.504 121.195 21.6053 121.707 21.808C122.219 22.0107 122.656 22.2987 123.019 22.672C123.382 23.0453 123.659 23.504 123.851 24.048C124.054 24.5813 124.155 25.184 124.155 25.856ZM132.025 25.856C132.025 24.8853 131.785 24.1387 131.305 23.616C130.825 23.0933 130.185 22.832 129.385 22.832C128.937 22.832 128.585 22.848 128.329 22.88C128.083 22.912 127.886 22.9493 127.737 22.992V28.24C127.918 28.3893 128.179 28.5333 128.521 28.672C128.862 28.8107 129.235 28.88 129.641 28.88C130.067 28.88 130.43 28.8053 130.729 28.656C131.038 28.496 131.289 28.2827 131.481 28.016C131.673 27.7387 131.811 27.4187 131.897 27.056C131.982 26.6827 132.025 26.2827 132.025 25.856ZM133.577 25.856C133.577 26.4853 133.491 27.0667 133.321 27.6C133.161 28.1333 132.921 28.592 132.601 28.976C132.281 29.36 131.886 29.6587 131.417 29.872C130.958 30.0853 130.43 30.192 129.833 30.192C129.353 30.192 128.926 30.128 128.553 30C128.19 29.872 127.918 29.7493 127.737 29.632V32.96H126.249V21.936C126.601 21.8507 127.038 21.76 127.561 21.664C128.094 21.5573 128.707 21.504 129.401 21.504C130.041 21.504 130.617 21.6053 131.129 21.808C131.641 22.0107 132.078 22.2987 132.441 22.672C132.803 23.0453 133.081 23.504 133.273 24.048C133.475 24.5813 133.577 25.184 133.577 25.856Z" fill="white"/>
</g>
<defs>
<filter id="filter0_dd_1_19" x="0" y="0" width="166.39" height="68" filterUnits="userSpaceOnUse" color-interpolation-filters="sRGB">
<feFlood flood-opacity="0" result="BackgroundImageFix"/>
<feColorMatrix in="SourceAlpha" type="matrix" values="0 0 0 0 0 0 0 0 0 0 0 0 0 0 0 0 0 0 127 0" result="hardAlpha"/>
<feMorphology radius="4" operator="erode" in="SourceAlpha" result="effect1_dropShadow_1_19"/>
<feOffset dy="4"/>
<feGaussianBlur stdDeviation="3"/>
<feComposite in2="hardAlpha" operator="out"/>
<feColorMatrix type="matrix" values="0 0 0 0 0 0 0 0 0 0 0 0 0 0 0 0 0 0 0.1 0"/>
<feBlend mode="normal" in2="BackgroundImageFix" result="effect1_dropShadow_1_19"/>
<feColorMatrix in="SourceAlpha" type="matrix" values="0 0 0 0 0 0 0 0 0 0 0 0 0 0 0 0 0 0 127 0" result="hardAlpha"/>
<feMorphology radius="3" operator="erode" in="SourceAlpha" result="effect2_dropShadow_1_19"/>
<feOffset dy="10"/>
<feGaussianBlur stdDeviation="7.5"/>
<feComposite in2="hardAlpha" operator="out"/>
<feColorMatrix type="matrix" values="0 0 0 0 0 0 0 0 0 0 0 0 0 0 0 0 0 0 0.1 0"/>
<feBlend mode="normal" in2="effect1_dropShadow_1_19" result="effect2_dropShadow_1_19"/>
<feBlend mode="normal" in="SourceGraphic" in2="effect2_dropShadow_1_19" result="shape"/>
</filter>
<linearGradient id="paint0_linear_1_19" x1="0" y1="22" x2="142.39" y2="22" gradientUnits="userSpaceOnUse">
<stop stop-color="#25D366"/>
<stop offset="1" stop-color="#4CAF50"/>
</linearGradient>
</defs>
</svg>
